<mxfile host="65bd71144e">
    <diagram id="xtA1a_p7q23QWDeRuTdz" name="Page-1">
        <mxGraphModel dx="566" dy="553" grid="1" gridSize="10" guides="1" tooltips="1" connect="1" arrows="1" fold="1" page="1" pageScale="1" pageWidth="850" pageHeight="1100" math="0" shadow="0">
            <root>
                <mxCell id="0"/>
                <mxCell id="1" parent="0"/>
                <mxCell id="44" value="" style="group" vertex="1" connectable="0" parent="1">
                    <mxGeometry x="50" y="190" width="670" height="250" as="geometry"/>
                </mxCell>
                <mxCell id="7" value="" style="group" parent="44" vertex="1" connectable="0">
                    <mxGeometry x="97.70833333333333" width="279.16666666666663" height="248.86877828054298" as="geometry"/>
                </mxCell>
                <mxCell id="2" value="" style="rounded=0;whiteSpace=wrap;html=1;fillColor=#6d8764;strokeColor=none;fontColor=#ffffff;" parent="7" vertex="1">
                    <mxGeometry width="279.16666666666663" height="248.86877828054298" as="geometry"/>
                </mxCell>
                <mxCell id="3" value="&lt;font face=&quot;Noto Sans&quot;&gt;Thread 1&lt;/font&gt;" style="text;html=1;strokeColor=none;fillColor=none;align=center;verticalAlign=middle;whiteSpace=wrap;rounded=0;" parent="7" vertex="1">
                    <mxGeometry width="279.16666666666663" height="33.93665158371041" as="geometry"/>
                </mxCell>
                <mxCell id="31" value="&lt;font face=&quot;Noto Sans&quot;&gt;load mMoney value to Registry&lt;/font&gt;" style="text;html=1;strokeColor=none;fillColor=none;align=center;verticalAlign=middle;whiteSpace=wrap;rounded=0;" parent="7" vertex="1">
                    <mxGeometry y="45.24886877828054" width="279.16666666666663" height="33.93665158371041" as="geometry"/>
                </mxCell>
                <mxCell id="32" value="&lt;font face=&quot;Noto Sans&quot;&gt;increase Registry value&lt;/font&gt;" style="text;html=1;strokeColor=none;fillColor=none;align=center;verticalAlign=middle;whiteSpace=wrap;rounded=0;" parent="7" vertex="1">
                    <mxGeometry y="101.80995475113122" width="279.16666666666663" height="33.93665158371041" as="geometry"/>
                </mxCell>
                <mxCell id="33" value="&lt;font face=&quot;Noto Sans&quot;&gt;update mMoney with Registry value&lt;/font&gt;" style="text;html=1;strokeColor=none;fillColor=none;align=center;verticalAlign=middle;whiteSpace=wrap;rounded=0;" parent="7" vertex="1">
                    <mxGeometry y="169.68325791855204" width="279.16666666666663" height="33.93665158371041" as="geometry"/>
                </mxCell>
                <mxCell id="34" value="" style="group" parent="44" vertex="1" connectable="0">
                    <mxGeometry x="390.8333333333333" y="1.1312217194570136" width="279.16666666666663" height="248.86877828054298" as="geometry"/>
                </mxCell>
                <mxCell id="35" value="" style="rounded=0;whiteSpace=wrap;html=1;fillColor=#647687;strokeColor=#314354;fontColor=#ffffff;" parent="34" vertex="1">
                    <mxGeometry width="279.16666666666663" height="248.86877828054298" as="geometry"/>
                </mxCell>
                <mxCell id="36" value="&lt;font face=&quot;Noto Sans&quot;&gt;Thread 2&lt;/font&gt;" style="text;html=1;strokeColor=none;fillColor=none;align=center;verticalAlign=middle;whiteSpace=wrap;rounded=0;" parent="34" vertex="1">
                    <mxGeometry width="279.16666666666663" height="33.93665158371041" as="geometry"/>
                </mxCell>
                <mxCell id="37" value="&lt;font face=&quot;Noto Sans&quot;&gt;load mMoney value to Registry&lt;/font&gt;" style="text;html=1;strokeColor=none;fillColor=none;align=center;verticalAlign=middle;whiteSpace=wrap;rounded=0;" parent="34" vertex="1">
                    <mxGeometry y="74.6606334841629" width="279.16666666666663" height="33.93665158371041" as="geometry"/>
                </mxCell>
                <mxCell id="38" value="&lt;font face=&quot;Noto Sans&quot;&gt;increase Registry value&lt;/font&gt;" style="text;html=1;strokeColor=none;fillColor=none;align=center;verticalAlign=middle;whiteSpace=wrap;rounded=0;" parent="34" vertex="1">
                    <mxGeometry y="133.4841628959276" width="279.16666666666663" height="33.93665158371041" as="geometry"/>
                </mxCell>
                <mxCell id="39" value="&lt;font face=&quot;Noto Sans&quot;&gt;update mMoney with Registry value&lt;/font&gt;" style="text;html=1;strokeColor=none;fillColor=none;align=center;verticalAlign=middle;whiteSpace=wrap;rounded=0;" parent="34" vertex="1">
                    <mxGeometry y="211.53846153846155" width="279.16666666666663" height="33.93665158371041" as="geometry"/>
                </mxCell>
                <mxCell id="42" value="" style="shape=flexArrow;endArrow=none;startArrow=none;html=1;startFill=0;endFill=0;fillColor=#76608a;strokeColor=#432D57;" parent="44" edge="1" source="43">
                    <mxGeometry width="100" height="100" relative="1" as="geometry">
                        <mxPoint x="69.79166666666666" y="248.86877828054298" as="sourcePoint"/>
                        <mxPoint x="69.79166666666666" y="1.1312217194570136" as="targetPoint"/>
                    </mxGeometry>
                </mxCell>
                <mxCell id="43" value="&lt;font face=&quot;Noto Sans&quot;&gt;Time&lt;/font&gt;" style="text;html=1;strokeColor=none;fillColor=none;align=center;verticalAlign=middle;whiteSpace=wrap;rounded=0;" parent="44" vertex="1">
                    <mxGeometry x="50" y="1.1299999999999955" width="43.75" height="33.94" as="geometry"/>
                </mxCell>
                <mxCell id="47" value="" style="shape=flexArrow;endArrow=none;startArrow=block;html=1;startFill=0;endFill=0;fillColor=#76608a;strokeColor=#432D57;" edge="1" parent="44" target="43">
                    <mxGeometry width="100" height="100" relative="1" as="geometry">
                        <mxPoint x="72" y="250" as="sourcePoint"/>
                        <mxPoint x="123.80752416839539" y="225.07000000000005" as="targetPoint"/>
                    </mxGeometry>
                </mxCell>
            </root>
        </mxGraphModel>
    </diagram>
</mxfile>